<?xml version="1.0" standalone="no"?>
<!DOCTYPE svg PUBLIC "-//W3C//DTD SVG 20010904//EN"
 "http://www.w3.org/TR/2001/REC-SVG-20010904/DTD/svg10.dtd">
<svg version="1.0" xmlns="http://www.w3.org/2000/svg"
 width="512.000000pt" height="512.000000pt" viewBox="0 0 512.000000 512.000000"
 preserveAspectRatio="xMidYMid meet">

<g transform="translate(0.000000,512.000000) scale(0.100000,-0.100000)"
fill="#000000" stroke="none">
<path d="M1527 5083 c-4 -3 -7 -408 -7 -900 l0 -893 160 0 160 0 0 740 0 740
1485 0 1485 0 0 -2210 0 -2210 -1485 0 -1485 0 0 740 0 740 -160 0 -160 0 2
-897 3 -898 1798 -3 1797 -2 0 2530 0 2530 -1793 0 c-987 0 -1797 -3 -1800 -7z"/>
<path d="M360 2925 l-365 -365 365 -365 c201 -201 370 -365 375 -365 13 0 215
202 215 215 0 5 -78 87 -172 182 l-173 173 1358 0 1357 0 0 160 0 160 -1357 0
-1358 0 173 173 c94 95 172 177 172 182 0 13 -202 215 -215 215 -5 0 -174
-164 -375 -365z"/>
</g>
</svg>
