<?xml version="1.0" standalone="no"?>
<!DOCTYPE svg PUBLIC "-//W3C//DTD SVG 20010904//EN"
 "http://www.w3.org/TR/2001/REC-SVG-20010904/DTD/svg10.dtd">
<svg version="1.0" xmlns="http://www.w3.org/2000/svg"
 width="512.000000pt" height="512.000000pt" viewBox="0 0 512.000000 512.000000"
 preserveAspectRatio="xMidYMid meet">

<g transform="translate(0.000000,512.000000) scale(0.100000,-0.100000)"
fill="#fff" stroke="none">
<path d="M2475 3821 c-28 -13 -381 -360 -1142 -1122 -1007 -1010 -1103 -1108
-1113 -1148 -16 -61 -5 -122 33 -178 37 -54 89 -84 157 -91 101 -9 44 -60
1138 1031 l1012 1012 1013 -1012 c876 -875 1017 -1013 1052 -1022 62 -17 105
-13 162 14 91 42 139 147 113 246 -10 40 -106 138 -1113 1148 -761 762 -1114
1109 -1142 1122 -22 10 -60 19 -85 19 -25 0 -63 -9 -85 -19z"/>
</g>
</svg>
