<svg width="50" height="50" viewBox="0 0 50 50" fill="none" xmlns="http://www.w3.org/2000/svg">
<g filter="url(#filter0_d_156_43)">
<circle cx="25" cy="25" r="15" fill="url(#paint0_linear_156_43)"/>
</g>
<g clip-path="url(#clip0_156_43)">
<path fill-rule="evenodd" clip-rule="evenodd" d="M20.4628 30.3795C20.4113 30.3311 20.3604 30.2817 20.3101 30.2314C17.6533 27.5746 17.6533 23.2672 20.3101 20.6104C22.9668 17.9536 31.4324 17.7759 31.4324 17.7759C31.4324 17.7759 32.5879 27.5746 29.9311 30.2314C27.5716 32.591 23.91 32.8549 21.2591 31.0233L23.3951 28.4021L26.8096 27.6649L24.0224 27.3863L25.7937 25.5827L27.81 25.141L26.2156 24.6688L27.81 21.7926L25.5422 24.3363L24.6664 23.1005L24.9747 25.141L23.3951 26.9217L22.6629 24.6688V27.6649L20.4628 30.3795Z" fill="white"/>
</g>
<defs>
<filter id="filter0_d_156_43" x="0" y="0" width="50" height="50" filterUnits="userSpaceOnUse" color-interpolation-filters="sRGB">
<feFlood flood-opacity="0" result="BackgroundImageFix"/>
<feColorMatrix in="SourceAlpha" type="matrix" values="0 0 0 0 0 0 0 0 0 0 0 0 0 0 0 0 0 0 127 0" result="hardAlpha"/>
<feOffset/>
<feGaussianBlur stdDeviation="5"/>
<feColorMatrix type="matrix" values="0 0 0 0 0.392157 0 0 0 0 0.72549 0 0 0 0 0.329412 0 0 0 0.7 0"/>
<feBlend mode="normal" in2="BackgroundImageFix" result="effect1_dropShadow_156_43"/>
<feBlend mode="normal" in="SourceGraphic" in2="effect1_dropShadow_156_43" result="shape"/>
</filter>
<linearGradient id="paint0_linear_156_43" x1="10" y1="10" x2="10" y2="40" gradientUnits="userSpaceOnUse">
<stop stop-color="#5AC178"/>
<stop offset="1" stop-color="#5FBC51"/>
</linearGradient>
<clipPath id="clip0_156_43">
<rect width="15" height="15" fill="white" transform="translate(17.5 17.5)"/>
</clipPath>
</defs>
</svg>
