<svg width="50" height="50" viewBox="0 0 50 50" fill="none" xmlns="http://www.w3.org/2000/svg">
<g filter="url(#filter0_d_166_58)">
<circle cx="25" cy="25" r="15" fill="url(#paint0_linear_166_58)"/>
</g>
<g clip-path="url(#clip0_166_58)">
<path fill-rule="evenodd" clip-rule="evenodd" d="M30.8655 29.9583C30.8655 29.9583 28.9741 31.4752 25.2102 30.8475C22.3547 30.3712 20.8317 27.2234 20.8317 25.5314C20.8317 21.5197 23.8008 20.6068 25.8081 20.6068C27.8154 20.6068 29.1249 22.5639 29.1249 24.0791C29.1249 25.5943 28.0532 26.9197 26.3854 26.9197C24.7177 26.9197 24.2237 25.7488 24.2237 24.6724C24.2237 23.5959 25.0946 23.2167 25.8889 23.2167C26.6832 23.2167 26.9551 23.8948 26.9551 24.4776C26.9551 25.0604 26.5029 25.2691 26.1258 25.2691C25.7486 25.2691 25.7113 25.0788 25.567 24.8789C25.4226 24.6789 25.7511 23.922 25.2102 23.922C24.6694 23.922 24.5686 24.7921 24.5686 24.7921C24.5686 24.7921 24.7658 26.4718 26.3854 26.4429C28.0051 26.4138 28.7735 25.1617 28.5502 23.922C28.3269 22.6823 27.1237 21.3649 25.0122 21.6311C22.9007 21.8973 22.0385 24.0308 22.4185 26.3108C22.7986 28.5909 25.53 29.9119 27.6776 29.4366C29.8252 28.9614 31.9642 27.4066 31.9642 23.4646C31.9642 19.5226 28.5502 17.1531 24.4792 17.5436C20.4083 17.9341 17.8812 21.4932 18.043 25.7695C18.2047 30.0458 22.2625 32.3748 25.6937 32.4949C29.1249 32.6149 31.2284 30.6287 31.2284 30.6287C31.2284 30.6287 31.7014 30.2068 31.516 29.8774C31.3305 29.548 30.8655 29.9583 30.8655 29.9583Z" fill="white"/>
</g>
<defs>
<filter id="filter0_d_166_58" x="0" y="0" width="50" height="50" filterUnits="userSpaceOnUse" color-interpolation-filters="sRGB">
<feFlood flood-opacity="0" result="BackgroundImageFix"/>
<feColorMatrix in="SourceAlpha" type="matrix" values="0 0 0 0 0 0 0 0 0 0 0 0 0 0 0 0 0 0 127 0" result="hardAlpha"/>
<feOffset/>
<feGaussianBlur stdDeviation="5"/>
<feColorMatrix type="matrix" values="0 0 0 0 0.972549 0 0 0 0 0.486275 0 0 0 0 0.478431 0 0 0 0.7 0"/>
<feBlend mode="normal" in2="BackgroundImageFix" result="effect1_dropShadow_166_58"/>
<feBlend mode="normal" in="SourceGraphic" in2="effect1_dropShadow_166_58" result="shape"/>
</filter>
<linearGradient id="paint0_linear_166_58" x1="10" y1="10" x2="10" y2="40" gradientUnits="userSpaceOnUse">
<stop stop-color="#FE9F92"/>
<stop offset="1" stop-color="#F66F71"/>
</linearGradient>
<clipPath id="clip0_166_58">
<rect width="15" height="15" fill="white" transform="translate(17.5 17.5)"/>
</clipPath>
</defs>
</svg>
